<svg width="41" height="48" viewBox="0 0 41 48" fill="none" xmlns="http://www.w3.org/2000/svg">
<path d="M40.0839 37.4071C39.358 39.0841 38.4988 40.6277 37.5033 42.047C36.1463 43.9817 35.0352 45.3209 34.1789 46.0646C32.8516 47.2853 31.4294 47.9105 29.9065 47.946C28.8132 47.946 27.4947 47.6349 25.9599 47.0039C24.4201 46.3757 23.0051 46.0646 21.7112 46.0646C20.3542 46.0646 18.8988 46.3757 17.3421 47.0039C15.7831 47.6349 14.5271 47.9638 13.5668 47.9964C12.1064 48.0586 10.6508 47.4157 9.19779 46.0646C8.27042 45.2558 7.11046 43.8691 5.72087 41.9047C4.22995 39.807 3.00422 37.3745 2.04395 34.6013C1.01554 31.6058 0.5 28.7051 0.5 25.8969C0.5 22.6801 1.19509 19.9057 2.58734 17.5807C3.68153 15.7132 5.13718 14.2401 6.95905 13.1586C8.78092 12.0772 10.7495 11.5261 12.8694 11.4908C14.0293 11.4908 15.5505 11.8497 17.4408 12.5548C19.3258 13.2623 20.5361 13.6212 21.0667 13.6212C21.4635 13.6212 22.808 13.2016 25.0874 12.3652C27.2428 11.5895 29.062 11.2683 30.5524 11.3948C34.5908 11.7208 37.6247 13.3127 39.6425 16.1808C36.0307 18.3692 34.2441 21.4342 34.2797 25.3663C34.3123 28.429 35.4233 30.9777 37.607 33.0013C38.5966 33.9405 39.7017 34.6664 40.9313 35.182C40.6646 35.9553 40.3832 36.696 40.0839 37.4071ZM30.822 0.960792C30.822 3.36134 29.945 5.60273 28.1969 7.67733C26.0873 10.1436 23.5357 11.5688 20.7687 11.3439C20.7334 11.0559 20.713 10.7528 20.713 10.4343C20.713 8.12976 21.7162 5.66346 23.4978 3.64693C24.3872 2.62593 25.5185 1.77697 26.8903 1.09975C28.2591 0.432629 29.5539 0.0636968 30.7716 0.000518799C30.8072 0.321435 30.822 0.642371 30.822 0.960761V0.960792Z" fill="black"/>
</svg>
